<svg width="64" height="64" viewBox="0 0 64 64" fill="none" xmlns="http://www.w3.org/2000/svg">
<path d="M31.8451 43.5722C30.0905 43.58 28.3591 43.1549 26.7929 42.3319C25.2268 41.5089 23.8703 40.3113 22.8351 38.8375L15.6197 43.1488C15.8943 43.4781 16.2193 43.7577 16.5818 43.9764L29.4215 51.675C30.1719 52.0738 31.0024 52.2817 31.8451 52.2817C32.6877 52.2817 33.5183 52.0738 34.2687 51.675L47.1084 43.9764C47.4708 43.7577 47.7959 43.4781 48.0704 43.1488L40.8736 38.7606C39.8444 40.2512 38.4887 41.4652 36.9186 42.302C35.3485 43.1388 33.6092 43.5743 31.8451 43.5722Z" fill="#6366F1"/>
<path d="M20.548 31.954C20.5546 29.2169 21.6184 26.578 23.5362 24.5418C25.4539 22.5056 28.0912 21.2149 30.9437 20.9164V12.6197C30.5109 12.7055 30.0945 12.8544 29.7093 13.0612L16.3242 20.4197C15.5966 20.8839 14.9917 21.5025 14.5568 22.227C14.1218 22.9515 13.8686 23.7621 13.8169 24.5956V39.3124C13.8229 39.7371 13.8942 40.1587 14.029 40.5634L21.551 36.4243C20.8932 35.0173 20.5516 33.4945 20.548 31.954Z" fill="#6366F1"/>
<path d="M47.4979 20.4146L34.8173 13.061C34.4524 12.8543 34.0579 12.7054 33.6479 12.6197V20.8925C35.3706 21.0889 37.0234 21.6894 38.4732 22.646C39.923 23.6025 41.1294 24.8882 41.9951 26.3995C42.8608 27.9108 43.3616 29.6055 43.4574 31.3472C43.5531 33.0889 43.241 34.8288 42.5462 36.427L49.6723 40.5634C49.8 40.1588 49.8677 39.7376 49.8732 39.3133V24.6061C49.8271 23.7701 49.5885 22.9563 49.1763 22.2288C48.764 21.5014 48.1895 20.8803 47.4979 20.4146Z" fill="#6366F1"/>
<path d="M56.7344 13.0444L35.8009 0.937734C34.5733 0.32108 33.2186 0 31.8451 0C30.4715 0 29.117 0.32108 27.8893 0.937734L6.95574 13.0444C5.80672 13.794 4.85005 14.8036 4.16282 15.9918C3.47567 17.1799 3.07734 18.5132 3 19.8839V44.0971C3.0759 45.4707 3.47351 46.8073 4.16065 47.9986C4.8478 49.1901 5.80527 50.203 6.95574 50.9556L27.8893 63.0625C29.117 63.6791 30.4715 64 31.8451 64C33.2186 64 34.5733 63.6791 35.8009 63.0625L56.7344 50.9556C57.8849 50.203 58.8423 49.1901 59.5295 47.9986C60.2166 46.8073 60.6142 45.4707 60.6901 44.0971V19.8839C60.6128 18.5132 60.2145 17.1799 59.5273 15.9918C58.8401 14.8036 57.8834 13.794 56.7344 13.0444ZM54.0467 41.312C53.9852 42.3673 53.6775 43.3933 53.1483 44.308C52.6192 45.2228 51.8832 46.0005 50.9994 46.5791L34.8733 55.9006C33.9314 56.3768 32.8909 56.6249 31.8356 56.6249C30.7803 56.6249 29.7397 56.3768 28.7979 55.9006L12.6908 46.5791C11.8069 46.0005 11.0709 45.2228 10.5418 44.308C10.0126 43.3933 9.70494 42.3673 9.64347 41.312V22.688C9.70494 21.6327 10.0126 20.6066 10.5418 19.692C11.0709 18.7772 11.8069 17.9994 12.6908 17.4209L28.7788 8.09942C29.7208 7.62321 30.7613 7.37505 31.8167 7.37505C32.872 7.37505 33.9125 7.62321 34.8545 8.09942L50.9804 17.4209C51.8677 17.9973 52.6075 18.7743 53.14 19.6891C53.6726 20.6039 53.9831 21.6311 54.0467 22.688V41.312Z" fill="#4F46E5"/>
<path d="M23.7324 32C23.7324 33.5154 24.2082 34.9967 25.0996 36.2567C25.991 37.5168 27.2581 38.4988 28.7405 39.0788C30.2229 39.6586 31.8541 39.8103 33.4278 39.5148C35.0015 39.2191 36.447 38.4894 37.5815 37.4178C38.7161 36.3463 39.4888 34.981 39.8019 33.4948C40.1149 32.0085 39.9542 30.468 39.3402 29.0679C38.7262 27.6678 37.6865 26.4712 36.3523 25.6293C35.0182 24.7874 33.4496 24.338 31.8451 24.338C29.6935 24.338 27.63 25.1452 26.1086 26.5822C24.5871 28.0191 23.7324 29.968 23.7324 32Z" fill="#818CF8"/>
</svg>
